<?xml version='1.0' encoding='UTF-8'?>
<svg width="4120" height="270" xmlns="http://www.w3.org/2000/svg">
	<title>Solution for data/1/1.tsk</title>
	<desc>An horizontal chart bar showing the solution to the scheduling problem.</desc>
	<rect fill="url(#background)" x="0" y="0" width="100%" height="100%" />
	<text x="50%" y="30" dominant-baseline="middle" text-anchor="middle">Solution for data/1/1.tsk</text>
	<defs>
		<linearGradient id="background" y2="100%">
			<stop offset="5%" stop-color="rgba(3,126,243,1)" />
			<stop offset="95%" stop-color="rgba(48,195,158,1)" />
		</linearGradient>
	</defs>
	<g>
		<rect x="30" y="60" width="4060" height="170" rx="20" fill="black" opacity="0.5" />
		<text x="50" y="90" fill="white">cpu: 0</text>
		<rect x="50" y="110" height="100" width="4020" rx="10" fill="white" opacity="0.8" />
		<text x="60" y="130" fill="black">core: 0</text>
		<rect x="260" y="140" height="40" width="200" rx="10" fill="red" stroke="black">
			<title>App : Propylaea
period: 800
deadline: 900
wcet: 200</title>
		</rect>
		<text x="265" y="200" fill="black" font-size="smaller">T0-J1/5-S1/1</text>
		<rect x="460" y="140" height="40" width="300" rx="10" fill="red" stroke="black">
			<title>App : Propylaea
period: 2000
deadline: 2000
wcet: 300</title>
		</rect>
		<text x="465" y="200" fill="black" font-size="smaller">T2-J1/2-S1/1</text>
		<rect x="60" y="140" height="40" width="200" rx="10" fill="red" stroke="black">
			<title>App : Propylaea
period: 1000
deadline: 500
wcet: 200</title>
		</rect>
		<text x="65" y="200" fill="black" font-size="smaller">T1-J1/4-S1/1</text>
		<rect x="760" y="140" height="40" width="100" rx="10" fill="red" stroke="black">
			<title>App : Propylaea
period: 4000
deadline: 2000
wcet: 400</title>
		</rect>
		<text x="765" y="200" fill="black" font-size="smaller">T3-J1/1-S1/2</text>
		<rect x="1260" y="140" height="40" width="300" rx="10" fill="red" stroke="black">
			<title>App : Propylaea
period: 4000
deadline: 2000
wcet: 400</title>
		</rect>
		<text x="1265" y="200" fill="black" font-size="smaller">T3-J1/1-S2/2</text>
		<rect x="860" y="140" height="40" width="200" rx="10" fill="red" stroke="black">
			<title>App : Propylaea
period: 800
deadline: 900
wcet: 200</title>
		</rect>
		<text x="865" y="200" fill="black" font-size="smaller">T0-J2/5-S1/1</text>
		<rect x="1060" y="140" height="40" width="200" rx="10" fill="red" stroke="black">
			<title>App : Propylaea
period: 1000
deadline: 500
wcet: 200</title>
		</rect>
		<text x="1065" y="200" fill="black" font-size="smaller">T1-J2/4-S1/1</text>
		<rect x="1660" y="140" height="40" width="200" rx="10" fill="red" stroke="black">
			<title>App : Propylaea
period: 800
deadline: 900
wcet: 200</title>
		</rect>
		<text x="1665" y="200" fill="black" font-size="smaller">T0-J3/5-S1/1</text>
		<rect x="2260" y="140" height="40" width="200" rx="10" fill="red" stroke="black">
			<title>App : Propylaea
period: 2000
deadline: 2000
wcet: 300</title>
		</rect>
		<text x="2265" y="200" fill="black" font-size="smaller">T2-J2/2-S1/2</text>
		<rect x="2660" y="140" height="40" width="100" rx="10" fill="red" stroke="black">
			<title>App : Propylaea
period: 2000
deadline: 2000
wcet: 300</title>
		</rect>
		<text x="2665" y="200" fill="black" font-size="smaller">T2-J2/2-S2/2</text>
		<rect x="2060" y="140" height="40" width="200" rx="10" fill="red" stroke="black">
			<title>App : Propylaea
period: 1000
deadline: 500
wcet: 200</title>
		</rect>
		<text x="2065" y="200" fill="black" font-size="smaller">T1-J3/4-S1/1</text>
		<rect x="2460" y="140" height="40" width="200" rx="10" fill="red" stroke="black">
			<title>App : Propylaea
period: 800
deadline: 900
wcet: 200</title>
		</rect>
		<text x="2465" y="200" fill="black" font-size="smaller">T0-J4/5-S1/1</text>
		<rect x="3060" y="140" height="40" width="200" rx="10" fill="red" stroke="black">
			<title>App : Propylaea
period: 1000
deadline: 500
wcet: 200</title>
		</rect>
		<text x="3065" y="200" fill="black" font-size="smaller">T1-J4/4-S1/1</text>
		<rect x="3260" y="140" height="40" width="200" rx="10" fill="red" stroke="black">
			<title>App : Propylaea
period: 800
deadline: 900
wcet: 200</title>
		</rect>
		<text x="3265" y="200" fill="black" font-size="smaller">T0-J5/5-S1/1</text>
		<line x1="60" y1="150" x2="60" y2="170" stroke="black" />
		<line x1="160" y1="150" x2="160" y2="170" stroke="black" />
		<line x1="260" y1="150" x2="260" y2="170" stroke="black" />
		<line x1="360" y1="150" x2="360" y2="170" stroke="black" />
		<line x1="460" y1="150" x2="460" y2="170" stroke="black" />
		<line x1="560" y1="150" x2="560" y2="170" stroke="black" />
		<line x1="660" y1="150" x2="660" y2="170" stroke="black" />
		<line x1="760" y1="150" x2="760" y2="170" stroke="black" />
		<line x1="860" y1="150" x2="860" y2="170" stroke="black" />
		<line x1="960" y1="150" x2="960" y2="170" stroke="black" />
		<line x1="1060" y1="150" x2="1060" y2="170" stroke="black" />
		<line x1="1160" y1="150" x2="1160" y2="170" stroke="black" />
		<line x1="1260" y1="150" x2="1260" y2="170" stroke="black" />
		<line x1="1360" y1="150" x2="1360" y2="170" stroke="black" />
		<line x1="1460" y1="150" x2="1460" y2="170" stroke="black" />
		<line x1="1560" y1="150" x2="1560" y2="170" stroke="black" />
		<line x1="1660" y1="150" x2="1660" y2="170" stroke="black" />
		<line x1="1760" y1="150" x2="1760" y2="170" stroke="black" />
		<line x1="1860" y1="150" x2="1860" y2="170" stroke="black" />
		<line x1="1960" y1="150" x2="1960" y2="170" stroke="black" />
		<line x1="2060" y1="150" x2="2060" y2="170" stroke="black" />
		<line x1="2160" y1="150" x2="2160" y2="170" stroke="black" />
		<line x1="2260" y1="150" x2="2260" y2="170" stroke="black" />
		<line x1="2360" y1="150" x2="2360" y2="170" stroke="black" />
		<line x1="2460" y1="150" x2="2460" y2="170" stroke="black" />
		<line x1="2560" y1="150" x2="2560" y2="170" stroke="black" />
		<line x1="2660" y1="150" x2="2660" y2="170" stroke="black" />
		<line x1="2760" y1="150" x2="2760" y2="170" stroke="black" />
		<line x1="2860" y1="150" x2="2860" y2="170" stroke="black" />
		<line x1="2960" y1="150" x2="2960" y2="170" stroke="black" />
		<line x1="3060" y1="150" x2="3060" y2="170" stroke="black" />
		<line x1="3160" y1="150" x2="3160" y2="170" stroke="black" />
		<line x1="3260" y1="150" x2="3260" y2="170" stroke="black" />
		<line x1="3360" y1="150" x2="3360" y2="170" stroke="black" />
		<line x1="3460" y1="150" x2="3460" y2="170" stroke="black" />
		<line x1="3560" y1="150" x2="3560" y2="170" stroke="black" />
		<line x1="3660" y1="150" x2="3660" y2="170" stroke="black" />
		<line x1="3760" y1="150" x2="3760" y2="170" stroke="black" />
		<line x1="3860" y1="150" x2="3860" y2="170" stroke="black" />
		<line x1="3960" y1="150" x2="3960" y2="170" stroke="black" />
		<line x1="1060" y1="130" x2="1060" y2="190" stroke="black" />
		<text x="1040" y="125" fill="black">1000</text>
		<line x1="2060" y1="130" x2="2060" y2="190" stroke="black" />
		<text x="2040" y="125" fill="black">2000</text>
		<line x1="3060" y1="130" x2="3060" y2="190" stroke="black" />
		<text x="3040" y="125" fill="black">3000</text>
		<line x1="60" y1="130" x2="60" y2="190" stroke="black" />
		<line x1="60" y1="160" x2="4060" y2="160" stroke="black" />
		<line x1="4060" y1="130" x2="4060" y2="190" stroke="black" />
	</g>
</svg>
